<?xml version="1.0" encoding="UTF-8" standalone="no"?>
<!DOCTYPE svg PUBLIC "-//W3C//DTD SVG 1.1//EN"
 "http://www.w3.org/Graphics/SVG/1.1/DTD/svg11.dtd">
<!-- Generated by graphviz version 2.26.3 (20100126.1600)
 -->
<!-- Title: models_diagram Pages: 1 -->
<svg width="852pt" height="814pt"
 viewBox="0.00 0.00 852.47 814.00" xmlns="http://www.w3.org/2000/svg" xmlns:xlink="http://www.w3.org/1999/xlink">
<g id="graph1" class="graph" transform="scale(1 1) rotate(0) translate(4 810)">
<title>models_diagram</title>
<polygon fill="white" stroke="white" points="-4,5 -4,-810 849.47,-810 849.47,5 -4,5"/>
<!-- _diagram_info -->
<g id="node1" class="node"><title>_diagram_info</title>
<text text-anchor="start" x="30" y="-789.8" font-family="Times Roman,serif" font-size="13.00">Models diagram</text>
<text text-anchor="start" x="30" y="-774.8" font-family="Times Roman,serif" font-size="13.00">Date: Dec 14 2013 &#45; 02:41</text>
<text text-anchor="start" x="30" y="-759.8" font-family="Times Roman,serif" font-size="13.00">Migration version: 20131206161112</text>
<text text-anchor="start" x="30" y="-744.8" font-family="Times Roman,serif" font-size="13.00">Generated by RailRoady 1.1.1</text>
<text text-anchor="start" x="30" y="-729.8" font-family="Times Roman,serif" font-size="13.00">http://railroady.prestonlee.com</text>
</g>
<!-- Graduate -->
<g id="node2" class="node"><title>Graduate</title>
<polyline fill="none" stroke="black" points="11.5,-57 132.5,-57 "/>
<path fill="none" stroke="black" d="M132.5,-57C138.5,-57 144.5,-63 144.5,-69"/>
<polyline fill="none" stroke="black" points="144.5,-69 144.5,-141 "/>
<path fill="none" stroke="black" d="M144.5,-141C144.5,-147 138.5,-153 132.5,-153"/>
<polyline fill="none" stroke="black" points="132.5,-153 11.5,-153 "/>
<path fill="none" stroke="black" d="M11.5,-153C5.5,-153 -0.5,-147 -0.5,-141"/>
<polyline fill="none" stroke="black" points="-0.5,-141 -0.5,-69 "/>
<path fill="none" stroke="black" d="M-0.5,-69C-0.5,-63 5.5,-57 11.5,-57"/>
<text text-anchor="middle" x="72" y="-136.4" font-family="Times Roman,serif" font-size="14.00">Graduate</text>
<polyline fill="none" stroke="black" points="-0.5,-129 144.5,-129 "/>
<text text-anchor="start" x="7.5" y="-112.4" font-family="Times Roman,serif" font-size="14.00">id :integer</text>
<text text-anchor="start" x="7.5" y="-96.4" font-family="Times Roman,serif" font-size="14.00">user_id :integer</text>
<text text-anchor="start" x="7.5" y="-80.4" font-family="Times Roman,serif" font-size="14.00">is_change :boolean</text>
<text text-anchor="start" x="7.5" y="-64.4" font-family="Times Roman,serif" font-size="14.00">finish_date :date</text>
</g>
<!-- Participant -->
<g id="node3" class="node"><title>Participant</title>
<polyline fill="none" stroke="black" points="174,-41 316,-41 "/>
<path fill="none" stroke="black" d="M316,-41C322,-41 328,-47 328,-53"/>
<polyline fill="none" stroke="black" points="328,-53 328,-157 "/>
<path fill="none" stroke="black" d="M328,-157C328,-163 322,-169 316,-169"/>
<polyline fill="none" stroke="black" points="316,-169 174,-169 "/>
<path fill="none" stroke="black" d="M174,-169C168,-169 162,-163 162,-157"/>
<polyline fill="none" stroke="black" points="162,-157 162,-53 "/>
<path fill="none" stroke="black" d="M162,-53C162,-47 168,-41 174,-41"/>
<text text-anchor="middle" x="245" y="-152.4" font-family="Times Roman,serif" font-size="14.00">Participant</text>
<polyline fill="none" stroke="black" points="162,-145 328,-145 "/>
<text text-anchor="start" x="170" y="-128.4" font-family="Times Roman,serif" font-size="14.00">id :integer</text>
<text text-anchor="start" x="170" y="-112.4" font-family="Times Roman,serif" font-size="14.00">user_id :integer</text>
<text text-anchor="start" x="170" y="-96.4" font-family="Times Roman,serif" font-size="14.00">wish :integer</text>
<text text-anchor="start" x="170" y="-80.4" font-family="Times Roman,serif" font-size="14.00">wish_course :integer</text>
<text text-anchor="start" x="170" y="-64.4" font-family="Times Roman,serif" font-size="14.00">teacher :string</text>
<text text-anchor="start" x="170" y="-48.4" font-family="Times Roman,serif" font-size="14.00">unauthorized :boolean</text>
</g>
<!-- Student -->
<g id="node4" class="node"><title>Student</title>
<polyline fill="none" stroke="black" points="358,-1 520,-1 "/>
<path fill="none" stroke="black" d="M520,-1C526,-1 532,-7 532,-13"/>
<polyline fill="none" stroke="black" points="532,-13 532,-197 "/>
<path fill="none" stroke="black" d="M532,-197C532,-203 526,-209 520,-209"/>
<polyline fill="none" stroke="black" points="520,-209 358,-209 "/>
<path fill="none" stroke="black" d="M358,-209C352,-209 346,-203 346,-197"/>
<polyline fill="none" stroke="black" points="346,-197 346,-13 "/>
<path fill="none" stroke="black" d="M346,-13C346,-7 352,-1 358,-1"/>
<text text-anchor="middle" x="439" y="-192.4" font-family="Times Roman,serif" font-size="14.00">Student</text>
<polyline fill="none" stroke="black" points="346,-185 532,-185 "/>
<text text-anchor="start" x="354" y="-168.4" font-family="Times Roman,serif" font-size="14.00">id :integer</text>
<text text-anchor="start" x="354" y="-152.4" font-family="Times Roman,serif" font-size="14.00">user_id :integer</text>
<text text-anchor="start" x="354" y="-136.4" font-family="Times Roman,serif" font-size="14.00">grade :integer</text>
<text text-anchor="start" x="354" y="-120.4" font-family="Times Roman,serif" font-size="14.00">department :integer</text>
<text text-anchor="start" x="354" y="-104.4" font-family="Times Roman,serif" font-size="14.00">research_subject :integer</text>
<text text-anchor="start" x="354" y="-88.4" font-family="Times Roman,serif" font-size="14.00">research_room :integer</text>
<text text-anchor="start" x="354" y="-72.4" font-family="Times Roman,serif" font-size="14.00">student_number :string</text>
<text text-anchor="start" x="354" y="-56.4" font-family="Times Roman,serif" font-size="14.00">guarantor_name :string</text>
<text text-anchor="start" x="354" y="-40.4" font-family="Times Roman,serif" font-size="14.00">guarantor_address :string</text>
<text text-anchor="start" x="354" y="-24.4" font-family="Times Roman,serif" font-size="14.00">guarantor_phone :string</text>
<text text-anchor="start" x="354" y="-8.4" font-family="Times Roman,serif" font-size="14.00">entry_date :date</text>
</g>
<!-- JobKind -->
<g id="node5" class="node"><title>JobKind</title>
<polyline fill="none" stroke="black" points="246.5,-573 321.5,-573 "/>
<path fill="none" stroke="black" d="M321.5,-573C327.5,-573 333.5,-579 333.5,-585"/>
<polyline fill="none" stroke="black" points="333.5,-585 333.5,-625 "/>
<path fill="none" stroke="black" d="M333.5,-625C333.5,-631 327.5,-637 321.5,-637"/>
<polyline fill="none" stroke="black" points="321.5,-637 246.5,-637 "/>
<path fill="none" stroke="black" d="M246.5,-637C240.5,-637 234.5,-631 234.5,-625"/>
<polyline fill="none" stroke="black" points="234.5,-625 234.5,-585 "/>
<path fill="none" stroke="black" d="M234.5,-585C234.5,-579 240.5,-573 246.5,-573"/>
<text text-anchor="middle" x="284" y="-620.4" font-family="Times Roman,serif" font-size="14.00">JobKind</text>
<polyline fill="none" stroke="black" points="234.5,-613 333.5,-613 "/>
<text text-anchor="start" x="242.5" y="-596.4" font-family="Times Roman,serif" font-size="14.00">id :integer</text>
<text text-anchor="start" x="242.5" y="-580.4" font-family="Times Roman,serif" font-size="14.00">name :string</text>
</g>
<!-- User -->
<g id="node7" class="node"><title>User</title>
<polyline fill="none" stroke="black" points="209,-247 359,-247 "/>
<path fill="none" stroke="black" d="M359,-247C365,-247 371,-253 371,-259"/>
<polyline fill="none" stroke="black" points="371,-259 371,-475 "/>
<path fill="none" stroke="black" d="M371,-475C371,-481 365,-487 359,-487"/>
<polyline fill="none" stroke="black" points="359,-487 209,-487 "/>
<path fill="none" stroke="black" d="M209,-487C203,-487 197,-481 197,-475"/>
<polyline fill="none" stroke="black" points="197,-475 197,-259 "/>
<path fill="none" stroke="black" d="M197,-259C197,-253 203,-247 209,-247"/>
<text text-anchor="middle" x="284" y="-470.4" font-family="Times Roman,serif" font-size="14.00">User</text>
<polyline fill="none" stroke="black" points="197,-463 371,-463 "/>
<text text-anchor="start" x="205" y="-446.4" font-family="Times Roman,serif" font-size="14.00">id :integer</text>
<text text-anchor="start" x="205" y="-430.4" font-family="Times Roman,serif" font-size="14.00">user_id :string</text>
<text text-anchor="start" x="205" y="-414.4" font-family="Times Roman,serif" font-size="14.00">password_digest :string</text>
<text text-anchor="start" x="205" y="-398.4" font-family="Times Roman,serif" font-size="14.00">name :string</text>
<text text-anchor="start" x="205" y="-382.4" font-family="Times Roman,serif" font-size="14.00">country :string</text>
<text text-anchor="start" x="205" y="-366.4" font-family="Times Roman,serif" font-size="14.00">address :string</text>
<text text-anchor="start" x="205" y="-350.4" font-family="Times Roman,serif" font-size="14.00">phone :string</text>
<text text-anchor="start" x="205" y="-334.4" font-family="Times Roman,serif" font-size="14.00">job :string</text>
<text text-anchor="start" x="205" y="-318.4" font-family="Times Roman,serif" font-size="14.00">job_kind_id :integer</text>
<text text-anchor="start" x="205" y="-302.4" font-family="Times Roman,serif" font-size="14.00">birthday :date</text>
<text text-anchor="start" x="205" y="-286.4" font-family="Times Roman,serif" font-size="14.00">gender :integer</text>
<text text-anchor="start" x="205" y="-270.4" font-family="Times Roman,serif" font-size="14.00">created_at :datetime</text>
<text text-anchor="start" x="205" y="-254.4" font-family="Times Roman,serif" font-size="14.00">updated_at :datetime</text>
</g>
<!-- JobKind&#45;&gt;User -->
<g id="edge8" class="edge"><title>JobKind&#45;&gt;User</title>
<path fill="none" stroke="#a6d029" d="M284,-564.647C284,-545.666 284,-521.851 284,-497.388"/>
<ellipse fill="none" stroke="#a6d029" cx="284" cy="-568.902" rx="4" ry="4"/>
<polygon fill="#a6d029" stroke="#a6d029" points="284,-497.25 288.5,-487.25 284,-492.25 284,-487.25 284,-487.25 284,-487.25 284,-492.25 279.5,-487.25 284,-497.25 284,-497.25"/>
</g>
<!-- Event -->
<g id="node6" class="node"><title>Event</title>
<polyline fill="none" stroke="black" points="438.5,-541 575.5,-541 "/>
<path fill="none" stroke="black" d="M575.5,-541C581.5,-541 587.5,-547 587.5,-553"/>
<polyline fill="none" stroke="black" points="587.5,-553 587.5,-657 "/>
<path fill="none" stroke="black" d="M587.5,-657C587.5,-663 581.5,-669 575.5,-669"/>
<polyline fill="none" stroke="black" points="575.5,-669 438.5,-669 "/>
<path fill="none" stroke="black" d="M438.5,-669C432.5,-669 426.5,-663 426.5,-657"/>
<polyline fill="none" stroke="black" points="426.5,-657 426.5,-553 "/>
<path fill="none" stroke="black" d="M426.5,-553C426.5,-547 432.5,-541 438.5,-541"/>
<text text-anchor="middle" x="507" y="-652.4" font-family="Times Roman,serif" font-size="14.00">Event</text>
<polyline fill="none" stroke="black" points="426.5,-645 587.5,-645 "/>
<text text-anchor="start" x="434.5" y="-628.4" font-family="Times Roman,serif" font-size="14.00">id :integer</text>
<text text-anchor="start" x="434.5" y="-612.4" font-family="Times Roman,serif" font-size="14.00">meeting_date :date</text>
<text text-anchor="start" x="434.5" y="-596.4" font-family="Times Roman,serif" font-size="14.00">meeting_place :string</text>
<text text-anchor="start" x="434.5" y="-580.4" font-family="Times Roman,serif" font-size="14.00">event_type :integer</text>
<text text-anchor="start" x="434.5" y="-564.4" font-family="Times Roman,serif" font-size="14.00">created_at :datetime</text>
<text text-anchor="start" x="434.5" y="-548.4" font-family="Times Roman,serif" font-size="14.00">updated_at :datetime</text>
</g>
<!-- User&#45;&gt;Graduate -->
<g id="edge16" class="edge"><title>User&#45;&gt;Graduate</title>
<path fill="none" stroke="#47231b" d="M191.575,-257.315C178.527,-241.517 165.357,-225.399 153,-210 139.962,-193.751 126.02,-175.871 113.444,-159.542"/>
<ellipse fill="none" stroke="#47231b" cx="194.213" cy="-260.505" rx="4.00002" ry="4.00002"/>
<ellipse fill="#47231b" stroke="#47231b" cx="110.951" cy="-156.3" rx="4.00002" ry="4.00002"/>
</g>
<!-- User&#45;&gt;Participant -->
<g id="edge18" class="edge"><title>User&#45;&gt;Participant</title>
<path fill="none" stroke="#753679" d="M264.882,-238.565C261.74,-217.461 258.586,-196.268 255.744,-177.178"/>
<ellipse fill="none" stroke="#753679" cx="265.509" cy="-242.779" rx="4.00001" ry="4.00001"/>
<ellipse fill="#753679" stroke="#753679" cx="255.135" cy="-173.088" rx="4.00001" ry="4.00001"/>
</g>
<!-- User&#45;&gt;Student -->
<g id="edge14" class="edge"><title>User&#45;&gt;Student</title>
<path fill="none" stroke="#b3b711" d="M359.319,-239.687C363.935,-231.884 368.561,-224.064 373.133,-216.337"/>
<ellipse fill="none" stroke="#b3b711" cx="357.186" cy="-243.293" rx="4.00002" ry="4.00002"/>
<ellipse fill="#b3b711" stroke="#b3b711" cx="375.277" cy="-212.712" rx="4.00002" ry="4.00002"/>
</g>
<!-- AfterGraduation -->
<g id="node9" class="node"><title>AfterGraduation</title>
<polyline fill="none" stroke="black" points="630.5,-25 767.5,-25 "/>
<path fill="none" stroke="black" d="M767.5,-25C773.5,-25 779.5,-31 779.5,-37"/>
<polyline fill="none" stroke="black" points="779.5,-37 779.5,-173 "/>
<path fill="none" stroke="black" d="M779.5,-173C779.5,-179 773.5,-185 767.5,-185"/>
<polyline fill="none" stroke="black" points="767.5,-185 630.5,-185 "/>
<path fill="none" stroke="black" d="M630.5,-185C624.5,-185 618.5,-179 618.5,-173"/>
<polyline fill="none" stroke="black" points="618.5,-173 618.5,-37 "/>
<path fill="none" stroke="black" d="M618.5,-37C618.5,-31 624.5,-25 630.5,-25"/>
<text text-anchor="middle" x="699" y="-168.4" font-family="Times Roman,serif" font-size="14.00">AfterGraduation</text>
<polyline fill="none" stroke="black" points="618.5,-161 779.5,-161 "/>
<text text-anchor="start" x="626.5" y="-144.4" font-family="Times Roman,serif" font-size="14.00">id :integer</text>
<text text-anchor="start" x="626.5" y="-128.4" font-family="Times Roman,serif" font-size="14.00">user_id :integer</text>
<text text-anchor="start" x="626.5" y="-112.4" font-family="Times Roman,serif" font-size="14.00">belong :string</text>
<text text-anchor="start" x="626.5" y="-96.4" font-family="Times Roman,serif" font-size="14.00">position :string</text>
<text text-anchor="start" x="626.5" y="-80.4" font-family="Times Roman,serif" font-size="14.00">work_kind :integer</text>
<text text-anchor="start" x="626.5" y="-64.4" font-family="Times Roman,serif" font-size="14.00">other :text</text>
<text text-anchor="start" x="626.5" y="-48.4" font-family="Times Roman,serif" font-size="14.00">created_at :datetime</text>
<text text-anchor="start" x="626.5" y="-32.4" font-family="Times Roman,serif" font-size="14.00">updated_at :datetime</text>
</g>
<!-- User&#45;&gt;AfterGraduation -->
<g id="edge20" class="edge"><title>User&#45;&gt;AfterGraduation</title>
<path fill="none" stroke="#af29d3" d="M378.178,-310.645C427.034,-281.113 487.525,-244.085 541,-210 564.003,-195.338 588.66,-179.172 611.493,-164.011"/>
<ellipse fill="none" stroke="#af29d3" cx="374.48" cy="-312.878" rx="4.00002" ry="4.00002"/>
<ellipse fill="#af29d3" stroke="#af29d3" cx="614.867" cy="-161.768" rx="4.00002" ry="4.00002"/>
</g>
<!-- Certificate -->
<g id="node8" class="node"><title>Certificate</title>
<polyline fill="none" stroke="black" points="617,-525 767,-525 "/>
<path fill="none" stroke="black" d="M767,-525C773,-525 779,-531 779,-537"/>
<polyline fill="none" stroke="black" points="779,-537 779,-673 "/>
<path fill="none" stroke="black" d="M779,-673C779,-679 773,-685 767,-685"/>
<polyline fill="none" stroke="black" points="767,-685 617,-685 "/>
<path fill="none" stroke="black" d="M617,-685C611,-685 605,-679 605,-673"/>
<polyline fill="none" stroke="black" points="605,-673 605,-537 "/>
<path fill="none" stroke="black" d="M605,-537C605,-531 611,-525 617,-525"/>
<text text-anchor="middle" x="692" y="-668.4" font-family="Times Roman,serif" font-size="14.00">Certificate</text>
<polyline fill="none" stroke="black" points="605,-661 779,-661 "/>
<text text-anchor="start" x="613" y="-644.4" font-family="Times Roman,serif" font-size="14.00">id :integer</text>
<text text-anchor="start" x="613" y="-628.4" font-family="Times Roman,serif" font-size="14.00">kind :integer</text>
<text text-anchor="start" x="613" y="-612.4" font-family="Times Roman,serif" font-size="14.00">finish_year :integer</text>
<text text-anchor="start" x="613" y="-596.4" font-family="Times Roman,serif" font-size="14.00">count :integer</text>
<text text-anchor="start" x="613" y="-580.4" font-family="Times Roman,serif" font-size="14.00">purpose :text</text>
<text text-anchor="start" x="613" y="-564.4" font-family="Times Roman,serif" font-size="14.00">another_address :string</text>
<text text-anchor="start" x="613" y="-548.4" font-family="Times Roman,serif" font-size="14.00">created_at :datetime</text>
<text text-anchor="start" x="613" y="-532.4" font-family="Times Roman,serif" font-size="14.00">updated_at :datetime</text>
</g>
<!-- ActiveRecord::Base -->
<g id="node10" class="node"><title>ActiveRecord::Base</title>
<ellipse fill="none" stroke="black" cx="380" cy="-764" rx="97.9398" ry="18"/>
<text text-anchor="middle" x="380" y="-759.4" font-family="Times Roman,serif" font-size="14.00">ActiveRecord::Base</text>
</g>
<!-- ActiveRecord::Base&#45;&gt;Graduate -->
<g id="edge2" class="edge"><title>ActiveRecord::Base&#45;&gt;Graduate</title>
<path fill="none" stroke="black" d="M340.44,-747.449C320.397,-739.326 295.582,-729.665 273,-722 218.254,-703.418 185.695,-729.835 148,-686 15.0146,-531.352 43.7194,-262.556 62.4161,-153.276"/>
</g>
<!-- ActiveRecord::Base&#45;&gt;Participant -->
<g id="edge4" class="edge"><title>ActiveRecord::Base&#45;&gt;Participant</title>
<path fill="none" stroke="black" d="M338.116,-747.708C297.687,-731.151 240.52,-705.267 226,-686 107.871,-529.243 150.528,-438.674 188,-246 193.066,-219.952 202.939,-192.626 213.064,-169.038"/>
</g>
<!-- ActiveRecord::Base&#45;&gt;Student -->
<g id="edge6" class="edge"><title>ActiveRecord::Base&#45;&gt;Student</title>
<path fill="none" stroke="black" d="M381.64,-745.687C388.507,-668.98 415.269,-370.058 429.683,-209.065"/>
</g>
<!-- ActiveRecord::Base&#45;&gt;JobKind -->
<g id="edge10" class="edge"><title>ActiveRecord::Base&#45;&gt;JobKind</title>
<path fill="none" stroke="black" d="M369.174,-746.07C353.237,-719.675 323.214,-669.948 303.409,-637.145"/>
</g>
<!-- ActiveRecord::Base&#45;&gt;Event -->
<g id="edge12" class="edge"><title>ActiveRecord::Base&#45;&gt;Event</title>
<path fill="none" stroke="black" d="M394.322,-746.07C409.242,-727.39 433.495,-697.025 455.686,-669.243"/>
</g>
<!-- ActiveRecord::Base&#45;&gt;User -->
<g id="edge22" class="edge"><title>ActiveRecord::Base&#45;&gt;User</title>
<path fill="none" stroke="black" d="M378.372,-745.988C374.464,-705.696 363.266,-605.429 342,-524 338.843,-511.911 335.11,-499.453 331.084,-487.092"/>
</g>
<!-- ActiveRecord::Base&#45;&gt;Certificate -->
<g id="edge24" class="edge"><title>ActiveRecord::Base&#45;&gt;Certificate</title>
<path fill="none" stroke="black" d="M437.448,-749.296C482.425,-736.387 545.591,-715.11 596,-686 598.927,-684.31 601.852,-682.527 604.763,-680.67"/>
</g>
<!-- ActiveRecord::Base&#45;&gt;AfterGraduation -->
<g id="edge26" class="edge"><title>ActiveRecord::Base&#45;&gt;AfterGraduation</title>
<path fill="none" stroke="black" d="M474.925,-759.435C582.816,-752.024 749.051,-733.1 788,-686 906.842,-542.286 810.654,-307.676 745.879,-185.183"/>
</g>
</g>
</svg>
