<?xml version="1.0" encoding="UTF-8" standalone="no"?>
<!DOCTYPE svg PUBLIC "-//W3C//DTD SVG 1.1//EN"
 "http://www.w3.org/Graphics/SVG/1.1/DTD/svg11.dtd">
<!-- Generated by graphviz version 2.26.3 (20100126.1600)
 -->
<!-- Title: models_diagram Pages: 1 -->
<svg width="677pt" height="308pt"
 viewBox="0.00 0.00 677.00 308.00" xmlns="http://www.w3.org/2000/svg" xmlns:xlink="http://www.w3.org/1999/xlink">
<g id="graph1" class="graph" transform="scale(1 1) rotate(0) translate(4 304)">
<title>models_diagram</title>
<polygon fill="white" stroke="white" points="-4,5 -4,-304 674,-304 674,5 -4,5"/>
<!-- _diagram_info -->
<g id="node1" class="node"><title>_diagram_info</title>
<text text-anchor="start" x="8" y="-283.8" font-family="Times Roman,serif" font-size="13.00">Models diagram</text>
<text text-anchor="start" x="8" y="-268.8" font-family="Times Roman,serif" font-size="13.00">Date: Dec 14 2013 &#45; 02:41</text>
<text text-anchor="start" x="8" y="-253.8" font-family="Times Roman,serif" font-size="13.00">Migration version: 20131206161112</text>
<text text-anchor="start" x="8" y="-238.8" font-family="Times Roman,serif" font-size="13.00">Generated by RailRoady 1.1.1</text>
<text text-anchor="start" x="8" y="-223.8" font-family="Times Roman,serif" font-size="13.00">http://railroady.prestonlee.com</text>
</g>
<!-- Graduate -->
<g id="node2" class="node"><title>Graduate</title>
<ellipse fill="none" stroke="black" cx="141" cy="-18" rx="51.8257" ry="18"/>
<text text-anchor="middle" x="141" y="-13.4" font-family="Times Roman,serif" font-size="14.00">Graduate</text>
</g>
<!-- Participant -->
<g id="node3" class="node"><title>Participant</title>
<ellipse fill="none" stroke="black" cx="270" cy="-18" rx="59.2013" ry="18"/>
<text text-anchor="middle" x="270" y="-13.4" font-family="Times Roman,serif" font-size="14.00">Participant</text>
</g>
<!-- Student -->
<g id="node4" class="node"><title>Student</title>
<ellipse fill="none" stroke="black" cx="393" cy="-18" rx="45.7889" ry="18"/>
<text text-anchor="middle" x="393" y="-13.4" font-family="Times Roman,serif" font-size="14.00">Student</text>
</g>
<!-- JobKind -->
<g id="node5" class="node"><title>JobKind</title>
<ellipse fill="none" stroke="black" cx="265" cy="-162" rx="45.7889" ry="18"/>
<text text-anchor="middle" x="265" y="-157.4" font-family="Times Roman,serif" font-size="14.00">JobKind</text>
</g>
<!-- User -->
<g id="node7" class="node"><title>User</title>
<ellipse fill="none" stroke="black" cx="294" cy="-90" rx="31.0281" ry="18"/>
<text text-anchor="middle" x="294" y="-85.4" font-family="Times Roman,serif" font-size="14.00">User</text>
</g>
<!-- JobKind&#45;&gt;User -->
<g id="edge8" class="edge"><title>JobKind&#45;&gt;User</title>
<path fill="none" stroke="#1fc29d" d="M275.159,-136.777C277.707,-130.453 280.451,-123.64 283.035,-117.223"/>
<ellipse fill="none" stroke="#1fc29d" cx="273.663" cy="-140.492" rx="4.00002" ry="4.00002"/>
<polygon fill="#1fc29d" stroke="#1fc29d" points="283.178,-116.869 291.088,-109.274 285.046,-112.231 286.914,-107.593 286.914,-107.593 286.914,-107.593 285.046,-112.231 282.74,-105.912 283.178,-116.869 283.178,-116.869"/>
</g>
<!-- Event -->
<g id="node6" class="node"><title>Event</title>
<ellipse fill="none" stroke="black" cx="440" cy="-162" rx="35.0527" ry="18"/>
<text text-anchor="middle" x="440" y="-157.4" font-family="Times Roman,serif" font-size="14.00">Event</text>
</g>
<!-- User&#45;&gt;Graduate -->
<g id="edge16" class="edge"><title>User&#45;&gt;Graduate</title>
<path fill="none" stroke="#999597" d="M262.26,-75.0635C238.162,-63.7234 204.924,-48.0818 179.34,-36.0424"/>
<ellipse fill="none" stroke="#999597" cx="266.137" cy="-76.8882" rx="4.00002" ry="4.00002"/>
<ellipse fill="#999597" stroke="#999597" cx="175.623" cy="-34.2931" rx="4.00002" ry="4.00002"/>
</g>
<!-- User&#45;&gt;Participant -->
<g id="edge18" class="edge"><title>User&#45;&gt;Participant</title>
<path fill="none" stroke="#eecf2b" d="M285.537,-64.6102C283.282,-57.8456 280.844,-50.5321 278.583,-43.7485"/>
<ellipse fill="none" stroke="#eecf2b" cx="286.802" cy="-68.4075" rx="4.00001" ry="4.00001"/>
<ellipse fill="#eecf2b" stroke="#eecf2b" cx="277.296" cy="-39.8879" rx="4.00001" ry="4.00001"/>
</g>
<!-- User&#45;&gt;Student -->
<g id="edge14" class="edge"><title>User&#45;&gt;Student</title>
<path fill="none" stroke="#0f580f" d="M320.081,-71.0319C333.725,-61.1088 350.454,-48.9423 364.446,-38.7666"/>
<ellipse fill="none" stroke="#0f580f" cx="316.794" cy="-73.4224" rx="4.00002" ry="4.00002"/>
<ellipse fill="#0f580f" stroke="#0f580f" cx="367.834" cy="-36.3025" rx="4.00002" ry="4.00002"/>
</g>
<!-- AfterGraduation -->
<g id="node9" class="node"><title>AfterGraduation</title>
<ellipse fill="none" stroke="black" cx="587" cy="-18" rx="81.8401" ry="18"/>
<text text-anchor="middle" x="587" y="-13.4" font-family="Times Roman,serif" font-size="14.00">AfterGraduation</text>
</g>
<!-- User&#45;&gt;AfterGraduation -->
<g id="edge20" class="edge"><title>User&#45;&gt;AfterGraduation</title>
<path fill="none" stroke="#ec16db" d="M330.702,-80.9811C379.139,-69.0785 465.144,-47.9441 524.061,-33.4663"/>
<ellipse fill="none" stroke="#ec16db" cx="326.512" cy="-82.0107" rx="4.00001" ry="4.00001"/>
<ellipse fill="#ec16db" stroke="#ec16db" cx="528.303" cy="-32.4238" rx="4.00001" ry="4.00001"/>
</g>
<!-- Certificate -->
<g id="node8" class="node"><title>Certificate</title>
<ellipse fill="none" stroke="black" cx="550" cy="-162" rx="57.1889" ry="18"/>
<text text-anchor="middle" x="550" y="-157.4" font-family="Times Roman,serif" font-size="14.00">Certificate</text>
</g>
<!-- ActiveRecord::Base -->
<g id="node10" class="node"><title>ActiveRecord::Base</title>
<ellipse fill="none" stroke="black" cx="358" cy="-258" rx="97.9398" ry="18"/>
<text text-anchor="middle" x="358" y="-253.4" font-family="Times Roman,serif" font-size="14.00">ActiveRecord::Base</text>
</g>
<!-- ActiveRecord::Base&#45;&gt;Graduate -->
<g id="edge2" class="edge"><title>ActiveRecord::Base&#45;&gt;Graduate</title>
<path fill="none" stroke="black" d="M315.189,-241.627C273.371,-224.887 213.655,-198.752 197,-180 159.355,-137.615 146.727,-68.604 142.729,-36.0645"/>
</g>
<!-- ActiveRecord::Base&#45;&gt;Participant -->
<g id="edge4" class="edge"><title>ActiveRecord::Base&#45;&gt;Participant</title>
<path fill="none" stroke="black" d="M316.236,-241.713C276.815,-225.39 222.004,-199.895 210,-180 180.716,-131.465 227.375,-66.2954 253.804,-35.5076"/>
</g>
<!-- ActiveRecord::Base&#45;&gt;Student -->
<g id="edge6" class="edge"><title>ActiveRecord::Base&#45;&gt;Student</title>
<path fill="none" stroke="black" d="M360.631,-239.961C367.117,-195.484 383.821,-80.9447 390.339,-36.2483"/>
</g>
<!-- ActiveRecord::Base&#45;&gt;JobKind -->
<g id="edge10" class="edge"><title>ActiveRecord::Base&#45;&gt;JobKind</title>
<path fill="none" stroke="black" d="M340.507,-239.943C323.565,-222.454 298.068,-196.135 281.478,-179.009"/>
</g>
<!-- ActiveRecord::Base&#45;&gt;Event -->
<g id="edge12" class="edge"><title>ActiveRecord::Base&#45;&gt;Event</title>
<path fill="none" stroke="black" d="M373.424,-239.943C388.455,-222.345 411.123,-195.807 425.743,-178.691"/>
</g>
<!-- ActiveRecord::Base&#45;&gt;User -->
<g id="edge22" class="edge"><title>ActiveRecord::Base&#45;&gt;User</title>
<path fill="none" stroke="black" d="M352.766,-239.974C346.003,-217.284 333.484,-177.253 320,-144 314.917,-131.465 308.292,-117.735 303.001,-107.257"/>
</g>
<!-- ActiveRecord::Base&#45;&gt;Certificate -->
<g id="edge24" class="edge"><title>ActiveRecord::Base&#45;&gt;Certificate</title>
<path fill="none" stroke="black" d="M391.884,-241.058C427.948,-223.026 484.509,-194.745 519.306,-177.347"/>
</g>
<!-- ActiveRecord::Base&#45;&gt;AfterGraduation -->
<g id="edge26" class="edge"><title>ActiveRecord::Base&#45;&gt;AfterGraduation</title>
<path fill="none" stroke="black" d="M430.86,-245.879C499.077,-232.869 593.756,-209.964 616,-180 648.359,-136.411 616.711,-68.2882 598.241,-36.0594"/>
</g>
</g>
</svg>
